<?xml version="1.0" encoding="UTF-8" standalone="no"?>
<!DOCTYPE svg PUBLIC "-//W3C//DTD SVG 1.1//EN"
 "http://www.w3.org/Graphics/SVG/1.1/DTD/svg11.dtd">
<!-- Generated by graphviz version 2.44.0 (0)
 -->
<!-- Pages: 1 -->
<svg width="434pt" height="343pt"
 viewBox="0.00 0.00 433.95 343.08" xmlns="http://www.w3.org/2000/svg" xmlns:xlink="http://www.w3.org/1999/xlink">
<g id="graph0" class="graph" transform="scale(1 1) rotate(0) translate(4 339.08)">
<polygon fill="transparent" stroke="transparent" points="-4,4 -4,-339.08 429.95,-339.08 429.95,4 -4,4"/>
<text text-anchor="middle" x="212.97" y="-7.8" font-family="Times-Roman" font-size="14.00">window web api</text>
<!-- window -->
<g id="node1" class="node">
<title>window</title>
<polygon fill="#ffffb3" stroke="black" points="216,-197.04 0,-197.04 0,-193.04 -4,-193.04 -4,-189.04 0,-189.04 0,-169.04 -4,-169.04 -4,-165.04 0,-165.04 0,-161.04 216,-161.04 216,-197.04"/>
<polyline fill="none" stroke="black" points="0,-193.04 4,-193.04 4,-189.04 0,-189.04 "/>
<polyline fill="none" stroke="black" points="0,-169.04 4,-169.04 4,-165.04 0,-165.04 "/>
<text text-anchor="middle" x="108" y="-172.84" font-family="Helvetica" font-size="24.00">window</text>
</g>
<!-- document -->
<g id="node2" class="node">
<title>document</title>
<ellipse fill="#8dd3c7" stroke="black" cx="338.97" cy="-311.04" rx="86.95" ry="24.08"/>
<text text-anchor="middle" x="338.97" y="-304.84" font-family="Helvetica" font-size="24.00">document</text>
</g>
<!-- window&#45;&gt;document -->
<g id="edge1" class="edge">
<title>window&#45;&gt;document</title>
<path fill="none" stroke="black" d="M131.69,-197.31C159.01,-218.7 206.88,-254.2 252,-278.04 259.04,-281.76 266.58,-285.28 274.18,-288.53"/>
<polygon fill="black" stroke="black" points="272.86,-291.78 283.44,-292.37 275.54,-285.31 272.86,-291.78"/>
</g>
<!-- screen -->
<g id="node3" class="node">
<title>screen</title>
<ellipse fill="#bebada" stroke="black" cx="338.97" cy="-245.04" rx="62.87" ry="24.08"/>
<text text-anchor="middle" x="338.97" y="-238.84" font-family="Helvetica" font-size="24.00">screen</text>
</g>
<!-- window&#45;&gt;screen -->
<g id="edge2" class="edge">
<title>window&#45;&gt;screen</title>
<path fill="none" stroke="black" d="M171.57,-197.08C204.81,-206.66 245.46,-218.37 278.26,-227.83"/>
<polygon fill="black" stroke="black" points="277.59,-231.28 288.17,-230.69 279.53,-224.55 277.59,-231.28"/>
</g>
<!-- history -->
<g id="node4" class="node">
<title>history</title>
<ellipse fill="#fb8072" stroke="black" cx="338.97" cy="-179.04" rx="62.45" ry="24.08"/>
<text text-anchor="middle" x="338.97" y="-172.84" font-family="Helvetica" font-size="24.00">history</text>
</g>
<!-- window&#45;&gt;history -->
<g id="edge3" class="edge">
<title>window&#45;&gt;history</title>
<path fill="none" stroke="black" d="M216.11,-179.04C233.11,-179.04 250.32,-179.04 266.24,-179.04"/>
<polygon fill="black" stroke="black" points="266.51,-182.54 276.51,-179.04 266.51,-175.54 266.51,-182.54"/>
</g>
<!-- location -->
<g id="node5" class="node">
<title>location</title>
<ellipse fill="#80b1d3" stroke="black" cx="338.97" cy="-113.04" rx="70.01" ry="24.08"/>
<text text-anchor="middle" x="338.97" y="-106.84" font-family="Helvetica" font-size="24.00">location</text>
</g>
<!-- window&#45;&gt;location -->
<g id="edge4" class="edge">
<title>window&#45;&gt;location</title>
<path fill="none" stroke="black" d="M171.57,-161.01C203.73,-151.74 242.82,-140.47 275.03,-131.18"/>
<polygon fill="black" stroke="black" points="276.16,-134.5 284.8,-128.37 274.22,-127.78 276.16,-134.5"/>
</g>
<!-- console -->
<g id="node6" class="node">
<title>console</title>
<ellipse fill="#fdb462" stroke="black" cx="338.97" cy="-47.04" rx="70.92" ry="24.08"/>
<text text-anchor="middle" x="338.97" y="-40.84" font-family="Helvetica" font-size="24.00">console</text>
</g>
<!-- window&#45;&gt;console -->
<g id="edge5" class="edge">
<title>window&#45;&gt;console</title>
<path fill="none" stroke="black" d="M131.69,-160.77C159.01,-139.39 206.88,-103.88 252,-80.04 260.39,-75.61 269.52,-71.45 278.58,-67.69"/>
<polygon fill="black" stroke="black" points="280,-70.89 287.98,-63.92 277.39,-64.4 280,-70.89"/>
</g>
</g>
</svg>
