<svg xmlns:rdf="http://www.w3.org/1999/02/22-rdf-syntax-ns#" xmlns="http://www.w3.org/2000/svg" viewBox="0 0 800 480"
    version="1.1" xmlns:xlink="http://www.w3.org/1999/xlink">
    <title>Javascript Funktionen / functions</title>
    <rect height="355" width="569" y="57" x="118" fill="#f2f2f2" />
    <path d="m688 225.3h-235.7" stroke="#94918C" stroke-width="12" fill="none" />
    <path d="m688 236.9h-235.7" stroke="#ac9d93" stroke-width="12" fill="none" />
    <rect height="8.639" width="5.057" y="264.5" x="520" fill="#124d78" />
    <rect rx="2" height="11" width="18" y="272" x="513" fill="#999999" />
    <path d="m513 274.8h18" stroke="#666666" stroke-width="1px" fill="none" />
    <path d="m513 277.6h18" stroke="#666666" stroke-width="1px" fill="none" />
    <rect rx="3" height="29" width="32" y="279" x="506" fill="#666666" />
    <rect rx="1" transform="rotate(-90)" height="8" width="5" y="518" x="-268" fill="#124d78" />
    <path
        d="m539 263a4.741 3.582 0 0 0 -4 1.7h-25a4.741 3.582 0 0 0 -4 -1.7 4.741 3.582 0 0 0 -5 3.6 4.741 3.582 0 0 0 5 3.6 4.741 3.582 0 0 0 4 -1.5h25a4.741 3.582 0 0 0 4 1.5 4.741 3.582 0 0 0 5 -3.6 4.741 3.582 0 0 0 -5 -3.6z"
        fill="#fd4b39" />
    <text font-size="46.53px" y="44" x="326" fill="#ac9d93">input x</text>
    <text font-size="46.53px" y="461" x="285" fill="#ac9d93">output f(x)</text>
    <path
        d="m119.3 202.7h278.8c58.8 0 58.5 39.6 58.5 65.1 0 33.4 7.5 46.2 42.6 46.2h59.3c34.2-.5 45.1 44.7 45.1 44.7-.9 36.5 0 105.4 0 105.4"
        stroke="#94918C" stroke-width="16" fill="none" />
    <path
        d="m119.3 215.8h276.8c41.2 0 46.5 22.8 46.5 49.1 0 33.4 10 62.2 56.6 62.2h59.3c34.2-.5 35.1 36.9 35.1 36.9-.9 36.5 0 100.5 0 100.5"
        stroke="#ac9d93" stroke-width="16" fill="none" />
    <rect height="36.86" width="13" y="301" x="480" fill="#009faf" />
    <rect height="16.75" width="13" y="311" x="480" fill="#00bfcf" />
    <rect height="38.26" width="13" y="299" x="548" fill="#009faf" />
    <rect height="17.39" width="13" y="310" x="548" fill="#00bfcf" />
    <path d="m275.7 172.6l41-23" stroke="#94918C" stroke-width="12.37" fill="none" />
    <path d="m269.6 162l41-23.8" stroke="#ac9d93" stroke-width="12.37" fill="none" />
    <path d="m308.2 128.1l16.4 28" stroke="#fc4b38" stroke-width="6.186" fill="#fa8c81" />
    <path d="m305.3 132.3l14.1 24" stroke="#d3ae2c" stroke-width="6.186" fill="none" />
    <path d="m259.5 8.913v180" stroke="#94918C" stroke-width="14.74" fill="none" />
    <path d="m274.1 8.913v180" stroke="#ac9d93" stroke-width="14.74" fill="none" />
    <rect transform="scale(-1,1)" height="14.47" width="37.91" y="1.312" x="-285.5" fill="#009faf" />
    <rect transform="scale(-1,1)" height="14.47" width="10.34" y="1.312" x="-271.8" fill="#00bfcf" />
    <path d="m286.1 192.9h-39.1" stroke="#ffc700" stroke-width="7.369" fill="none" />
    <path d="m283.4 187.4h-33.7" stroke="#d3ae2c" stroke-width="7.369" fill="none" />
    <path d="m370.9 222.8v76.7c0 27-20.1 42.9-64.7 42.9h-185.7" stroke="#baada5" stroke-width="14" fill="none" />
    <path d="m360.9 223.1v63.6c0 27-10.1 42.9-54.7 42.9h-185.7" stroke="#94918C" stroke-width="14" fill="none" />
    <rect height="41.26" width="15.19" y="313.4" x="183.6" fill="#e7992e" />
    <rect height="15.94" width="15.19" y="326" x="183.6" fill="#fdc401" />
    <rect height="41.26" width="15.19" y="313.4" x="278.8" fill="#e7992e" />
    <rect height="15.94" width="15.19" y="326" x="278.8" fill="#fdc401" />
    <path d="m298 316.3v35.4" stroke="#fe4c3a" stroke-width="8.319" fill="none" />
    <path d="m234 307.5h-22.5c-5.3 0-3.4-1.2-2.8-4.1.5-2.8 1.9-8 2-9.5.3-1.5 2.7-4.2 5.7-3 3 1 18 6.9 18 6.9z"
        fill="#ff6873" />
    <path d="m242.1 307.5h22.6c5 0 3.3-1.2 2.5-4.1 0-2.8-1.7-8-1.7-9.5-.8-1.5-2.5-4.2-5.8-3-3.3 1-18 6.9-18 6.9z"
        fill="#ff6873" />
    <rect rx="4.404" height="16.64" width="16.88" y="291.5" x="229.7" fill="#fe4c3a" />
    <path d="m232.7 323.1v-19" stroke="#e7992e" stroke-width="13" fill="#e7992e" />
    <path d="m244.3 323.1v-19" stroke="#fdc401" stroke-width="13" fill="none" />
    <circle cx="570.3" cy="224.8" r="24.07" fill="#1a1a1a" />
    <path d="m546.3 230h25.6" stroke="#fcc500" stroke-width="7.995" fill="#fcc500" />
    <path d="m569.5 230h25.6" stroke="#ca9e00" stroke-width="7.995" fill="#fcc500" />
    <circle stroke-linejoin="round" cx="569.5" stroke-linecap="round" stroke="#cc3d2f" cy="224.6" r="25.53"
        stroke-width="7.995" fill="none" />
    <circle cx="555" cy="230" r="2" fill="#f9f9f9" />
    <circle cy="230" cx="564" r="2" fill="#f9f9f9" />
    <circle cx="574" cy="230" r="2" fill="#f9f9f9" />
    <circle cy="230" cx="582" r="2" fill="#f9f9f9" />
    <rect rx="3.521" height="7.21" width="27.91" y="211.2" x="555.9" fill="#f9f9f9" />
    <rect transform="scale(-1,1)" height="14.47" width="37.91" y="464.2" x="-616.7" fill="#009faf" />
    <rect transform="scale(-1,1)" height="14.47" width="10.34" y="464.2" x="-603" fill="#00bfcf" />
    <path d="m505.1 222.6v-164.9" stroke="#94918C" stroke-width="14" fill="none" />
    <path d="m519.2 222.6v-164.9" stroke="#ac9d93" stroke-width="14" fill="none" />
    <text transform="rotate(-90)" font-size="86.42px" y="780" x="-470" letter-spacing="8px"
        fill="#baada5">funktionen</text>
    <text transform="rotate(-90)" font-size="94.25px" y="90" x="-470" letter-spacing="8px"
        fill="#baada5">javascript</text>
</svg>