<svg id="Layer_1" data-name="Layer 1" xmlns="http://www.w3.org/2000/svg" xmlns:xlink="http://www.w3.org/1999/xlink"
  viewBox="0 0 661.78 559.68">
  <defs>
    <style>
      .cls-1,
      .cls-20,
      .cls-21,
      .cls-25 {
        fill: none;
      }

      .cls-18,
      .cls-2,
      .cls-3 {
        opacity: 0.5;
      }

      .cls-2 {
        fill: url(#linear-gradient);
      }

      .cls-3 {
        fill: #2c2e31;
      }

      .cls-4 {
        fill: url(#linear-gradient-2);
      }

      .cls-5 {
        fill: url(#linear-gradient-3);
      }

      .cls-23,
      .cls-24,
      .cls-6 {
        opacity: 0.3;
      }

      .cls-7 {
        fill: #d4e6ff;
      }

      .cls-8 {
        fill: url(#linear-gradient-4);
      }

      .cls-9 {
        fill: #00e381;
      }

      .cls-10 {
        fill: url(#linear-gradient-5);
      }

      .cls-11 {
        fill: #a6c7ff;
      }

      .cls-12 {
        opacity: 0.7;
      }

      .cls-13 {
        fill: #313239;
      }

      .cls-13,
      .cls-22 {
        opacity: 0.2;
      }

      .cls-14 {
        fill: #454a64;
      }

      .cls-15 {
        fill: #fff;
      }

      .cls-16 {
        fill: #cfe3ff;
      }

      .cls-17 {
        fill: #5196ff;
      }

      .cls-18 {
        fill: #00f194;
      }

      .cls-19 {
        fill: url(#linear-gradient-6);
      }

      .cls-20 {
        stroke: blue;
      }

      .cls-20,
      .cls-21,
      .cls-25 {
        stroke-miterlimit: 10;
      }

      .cls-20,
      .cls-21 {
        stroke-width: 1.28px;
      }

      .cls-21 {
        stroke: #fff;
      }

      .cls-22 {
        fill: url(#linear-gradient-7);
      }

      .cls-23 {
        fill: url(#linear-gradient-8);
      }

      .cls-24 {
        fill: url(#linear-gradient-9);
      }

      .cls-25 {
        stroke: #cfe3ff;
        stroke-width: 2.79px;
      }

      .cls-26 {
        clip-path: url(#clip-path);
      }

      .cls-27 {
        fill: url(#linear-gradient-10);
      }

      .cls-28 {
        opacity: 0.87;
      }

      .cls-29 {
        fill: url(#radial-gradient);
      }
    </style>
    <linearGradient id="linear-gradient" x1="330.89" y1="327.43" x2="330.89" y2="543.09" gradientUnits="userSpaceOnUse">
      <stop offset="0" stop-color="#525255" stop-opacity="0" />
      <stop offset="1" stop-color="#525255" />
    </linearGradient>
    <linearGradient id="linear-gradient-2" x1="42.66" y1="364.41" x2="369.66" y2="448.35"
      gradientUnits="userSpaceOnUse">
      <stop offset="0" stop-color="#fdce84" />
      <stop offset="1" stop-color="#f7985c" />
    </linearGradient>
    <linearGradient id="linear-gradient-3" x1="5828.86" y1="-1000.62" x2="5914.55" y2="-978.62"
      gradientTransform="matrix(-0.87, 0.49, 0.49, 0.87, 6177.12, -1631.41)" xlink:href="#linear-gradient-2" />
    <linearGradient id="linear-gradient-4" x1="453.54" y1="105.06" x2="520.5" y2="396.18"
      gradientUnits="userSpaceOnUse">
      <stop offset="0" stop-color="#002693" />
      <stop offset="0.72" stop-color="#2f5ccb" />
      <stop offset="0.8" stop-color="#2854c3" />
      <stop offset="0.92" stop-color="#153fac" />
      <stop offset="1" stop-color="#052c99" />
    </linearGradient>
    <linearGradient id="linear-gradient-5" x1="346.65" y1="56.71" x2="464.89" y2="56.71" gradientUnits="userSpaceOnUse">
      <stop offset="0" stop-color="#00e381" />
      <stop offset="1" stop-color="#00e381" />
    </linearGradient>
    <linearGradient id="linear-gradient-6" x1="265.99" y1="300.43" x2="265.99" y2="383.93"
      gradientUnits="userSpaceOnUse">
      <stop offset="0" stop-color="#525255" stop-opacity="0" />
      <stop offset="0.15" stop-color="#427161" stop-opacity="0.2" />
      <stop offset="0.38" stop-color="#2b9e73" stop-opacity="0.48" />
      <stop offset="0.59" stop-color="#18c281" stop-opacity="0.7" />
      <stop offset="0.77" stop-color="#0bdc8b" stop-opacity="0.86" />
      <stop offset="0.91" stop-color="#03eb92" stop-opacity="0.96" />
      <stop offset="1" stop-color="#00f194" />
    </linearGradient>
    <linearGradient id="linear-gradient-7" x1="281.14" y1="40.33" x2="281.14" y2="410.06"
      gradientUnits="userSpaceOnUse">
      <stop offset="0.12" stop-color="#fffce7" stop-opacity="0" />
      <stop offset="1" stop-color="#4ec6e1" />
    </linearGradient>
    <linearGradient id="linear-gradient-8" x1="-219.31" y1="594.97" x2="-219.31" y2="563.06"
      gradientTransform="translate(365.95 -183.84) rotate(-3.51)" gradientUnits="userSpaceOnUse">
      <stop offset="0" stop-color="#e7a279" />
      <stop offset="1" stop-color="#d17064" />
    </linearGradient>
    <linearGradient id="linear-gradient-9" x1="-209.14" y1="583.61" x2="-209.14" y2="555.48"
      xlink:href="#linear-gradient-8" />
    <clipPath id="clip-path" transform="translate(-12 -3.08)">
      <ellipse class="cls-1" cx="187" cy="422.96" rx="14.1" ry="4.59" />
    </clipPath>
    <linearGradient id="linear-gradient-10" x1="162.39" y1="423.61" x2="187.61" y2="423.61"
      gradientTransform="matrix(1, 0, 0, 1, 0, 0)" xlink:href="#linear-gradient-8" />
    <radialGradient id="radial-gradient" cx="311.89" cy="96.76" r="78.75"
      gradientTransform="translate(-159.03 235.84) rotate(-45)" gradientUnits="userSpaceOnUse">
      <stop offset="0" stop-color="#ffa514" />
      <stop offset="0.29" stop-color="#fea114" />
      <stop offset="0.58" stop-color="#fc9613" />
      <stop offset="0.85" stop-color="#f88212" />
      <stop offset="1" stop-color="#f57511" />
    </radialGradient>
  </defs>
  <title>Careers</title>
  <polygon class="cls-2" points="392.05 327.43 661.78 415.1 269.72 543.09 0 455.42 392.05 327.43" />
  <polygon class="cls-3"
    points="661.78 415.1 661.78 431.69 269.72 559.68 0 472.01 0 455.42 269.72 543.09 661.78 415.1" />
  <path class="cls-4"
    d="M218.91,450.88s224.64-44.48,227.24-62.16-158.5-26.24-158.5-26.24-16.22,11-74.51-9.4c-65.6,49.66-137.94,82.3-144.38,86.73S77.5,455,103.12,463.24s105.2,33.52,193.4,31.13,167.36-27.11,177.62-43.49-201-81.89-201-81.89L137.73,450.92"
    transform="translate(-12 -3.08)" />
  <path class="cls-5"
    d="M577.49,372.41c16.36,19.6,38.45,24.23,58.81,35.49,19.15,10.59-113.54,27.29-144.59-1-10.23-9.32,36.2-16.45,47.07-19.36C554.85,383.24,577.49,372.41,577.49,372.41Z"
    transform="translate(-12 -3.08)" />
  <g class="cls-6">
    <ellipse cx="496.76" cy="434.15" rx="26.68" ry="8.69" />
  </g>
  <path class="cls-7"
    d="M509.25,328c-28.07,0-50.83,7.42-50.83,16.56s22.76,16.56,50.83,16.56,50.84-7.41,50.84-16.56S537.33,328,509.25,328Z"
    transform="translate(-12 -3.08)" />
  <path class="cls-8"
    d="M446.26,63.24h0A7.1,7.1,0,0,0,441.32,72c16.4,58.45,49.71,171,42.45,292.74l51.68-5c-.89-74.27-58.32-238.69-80.52-291.73C453.45,64.47,450,62.22,446.26,63.24Z"
    transform="translate(-12 -3.08)" />
  <path class="cls-9"
    d="M392,81.94c-18.47,13.62-33.45,39.18-20.2,87.2.7,2.53,4.65,2,5.46-.47,6.08-18.92,30.55-68.63,62.28-97a2.63,2.63,0,0,0-1.9-4.59C427.18,67.66,407.66,70.42,392,81.94Z"
    transform="translate(-12 -3.08)" />
  <path class="cls-9"
    d="M452.46,94.62c-2.14-13.06-4.18-23.37-5.45-29.45a2.53,2.53,0,0,0-4.63-.82c-7.15,11.46-24,30.23-27.74,50.28-2.28,12.08-1.89,24-.73,35.15,5.92-3.64,16.92-6,16.92-6-8.47,3.14-13.62,6.75-16.54,9.37,3.55,28.31,14.39,51.79,20.82,63.7a2.57,2.57,0,0,0,4.82-1.05c.51-8.82,2.77-23.17,10.78-40.58a72.19,72.19,0,0,0,4.69-14c-1.23-2.69-4.66-7.84-13.73-10.93,0,0,12.51,2.51,14.56,6.86a116.65,116.65,0,0,0,1.55-25c-4.63-3.09-13.28-3.45-13.28-3.45L457.42,126C455.82,114.57,453.34,100,452.46,94.62Z"
    transform="translate(-12 -3.08)" />
  <path class="cls-10"
    d="M406.87,37.9c15,1.46,38.75,12.09,56.6,28.92a4.48,4.48,0,0,1-2.16,7.66c-24.91,4.81-50.42,1.71-66.49-2.59A59.67,59.67,0,0,1,371.7,59.43c-13.9-12-21.1-16.94-24.58-18.93a1,1,0,0,1,.37-1.76A321.53,321.53,0,0,1,386,36.81L388.25,47l1.51-10.49c5.65.1,9.49.72,15.42,1.24Z"
    transform="translate(-12 -3.08)" />
  <path class="cls-9"
    d="M543,43.85c-26-16.57-53.09-9-75.18-.59C457,47.36,448,56.35,443,62a2.77,2.77,0,0,0,2.29,4.58C461.55,65.5,504,62.55,510,61.76c1.75-7-2.23-15-2.23-15a19.22,19.22,0,0,1,5.3,14.65,94.91,94.91,0,0,1,9.57-.53c-.91-4.77-2.69-10.68-2.69-10.68,3.86,2,8.58,6.93,12.28,11.25,0,0,20.16,1.23,31,5.83C562.61,63.7,558.71,53.87,543,43.85Z"
    transform="translate(-12 -3.08)" />
  <path class="cls-9"
    d="M423.55,69.74C420.39,44.21,449.54-10.11,523,6c2.3.5,2,3.56-.41,4.23-10.62,3-30.69,10.1-47.8,24.55l-7.4-4.41,2.48,8.85C458.07,50.71,439.45,68.4,436.31,83.4a3.55,3.55,0,0,1-6.21,1.43A31.29,31.29,0,0,1,423.55,69.74Z"
    transform="translate(-12 -3.08)" />
  <path class="cls-9"
    d="M548.1,116.38l-12.38,1s6.7-1.59,11.38-2.83C537.91,97.56,508.66,61.63,453,61.64c-6.56,0-13,.45-16.85,2.54a2.56,2.56,0,0,0-.3,4.41c4.74,3.15,13.06,8.75,16.36,11.34C467,91.57,479.46,104.3,509.53,128.8l12.2-11.21-8.46,14.2c3.72,2.92,7.58,5.78,11.56,8.51,21.07,14.5,29.56,17.73,34.67,24.47a2.21,2.21,0,0,0,3.94-1.62C561.91,151.45,559.63,138.37,548.1,116.38Z"
    transform="translate(-12 -3.08)" />
  <path class="cls-11"
    d="M509.25,361.07c-28.07,0-50.83-7.41-50.83-16.56v27.62a34,34,0,0,0,33.95,34h33.76a34,34,0,0,0,34-34V344.51C560.09,353.66,537.33,361.07,509.25,361.07Z"
    transform="translate(-12 -3.08)" />
  <g class="cls-12">
    <ellipse class="cls-13" cx="283.59" cy="429.82" rx="55.39" ry="13.75" />
  </g>
  <path class="cls-14"
    d="M199.55,384.65l117.08-38.22L294.7,274.29a3.85,3.85,0,0,0-4.89-2.54L180.07,307.57a3.86,3.86,0,0,0-2.49,4.79Z"
    transform="translate(-12 -3.08)" />
  <polygon class="cls-15" points="187.52 381.57 255.76 403.75 372.86 365.52 304.63 343.34 187.52 381.57" />
  <polygon class="cls-14" points="205.56 379.94 239.09 390.88 334.66 359.74 301.13 348.8 205.56 379.94" />
  <path class="cls-16"
    d="M384.86,368.61v2.24a2.11,2.11,0,0,1-1.44,2L271.08,409.51a10.72,10.72,0,0,1-6.65,0L201,388.89a2.11,2.11,0,0,1-1.45-2v-2.24l64.91,21.1a10.79,10.79,0,0,0,6.65,0Z"
    transform="translate(-12 -3.08)" />
  <path class="cls-17"
    d="M202.37,378.08l109.16-35.63-19.29-63.34a2.06,2.06,0,0,0-2.6-1.36L184.38,312.12a2,2,0,0,0-1.32,2.55Z"
    transform="translate(-12 -3.08)" />
  <polygon class="cls-16" points="292.07 381.03 289.76 379.68 308.31 373.8 310.49 375.02 292.07 381.03" />
  <polygon class="cls-18" points="203.8 380.85 311.72 345.61 292.04 281.01 184.12 316.24 203.8 380.85" />
  <path class="cls-19"
    d="M208.26,358.51s6.32-1.76,6.93-5.94.21-8.79,4.73-9.07,7.33,4.09,8.72,5.42,4.53,3.69,7.63,1.94.75-7.35,7.45-7a10.33,10.33,0,0,1,6.28,3.44c4.22,4.72,9.42,1.85,11.75-.33s3.12-5.54,3-8.7c0,0-1.59-12.23,13.76-15s17.73-1.26,21.38-9.62,4.78-13,9.34-13.24l14.49,48.27L215.8,383.93Z"
    transform="translate(-12 -3.08)" />
  <path class="cls-20"
    d="M208.26,358.51s6.32-1.76,6.93-5.94.21-8.79,4.73-9.07,7.33,4.09,8.72,5.42,4.53,3.69,7.63,1.94.75-7.35,7.45-7a10.33,10.33,0,0,1,6.28,3.44c4.22,4.72,9.42,1.85,11.75-.33s3.12-5.54,3-8.7c0,0-1.59-12.23,13.76-15s17.73-1.26,21.38-9.62,4.78-13,9.34-13.24"
    transform="translate(-12 -3.08)" />
  <path class="cls-21"
    d="M311,308.31a4.52,4.52,0,0,1-4.33,4.79c-4.94.45-6.19-11.39-10.95-8.6-5.06,3-2.42,19.33-2.58,26s-2.38,13-4.73,14.39-7.6.89-10.58-9.23c-3.13-10.66-12.79-31.31-23.88-18-9.87,11.85-.49,39.5-6.38,45.06-6.23,5.88-10.77-8.16-16.21-10.76-7.39-3.54-16.84,3.89-18.55,19.31"
    transform="translate(-12 -3.08)" />
  <path class="cls-22"
    d="M384.86,40.33,177.41,115.22l.17,197.14,21.94,74.52a2.11,2.11,0,0,0,1.44,2c9.16,3.17,59.38,20.47,66.51,21.15,3.66.35,17.18-5,24.72-7.42,28.37-9.25,81.83-26.71,91.24-29.79a2.07,2.07,0,0,0,1.43-2Z"
    transform="translate(-12 -3.08)" />
  <path class="cls-16" d="M201.1,423v24a9.81,9.81,0,0,1-9.81,9.81h-8.58A9.81,9.81,0,0,1,172.9,447V423Z"
    transform="translate(-12 -3.08)" />
  <ellipse class="cls-15" cx="175" cy="419.88" rx="14.1" ry="4.59" />
  <path class="cls-23" d="M185.54,423.3s-6.73-4.81-5-16-4.28-15.44-4.28-15.44S193.92,397.46,185.54,423.3Z"
    transform="translate(-12 -3.08)" />
  <path class="cls-24"
    d="M190.11,411.64s.88-7-.73-11.86c-1.95-5.9.13-15.13,3.31-16.48,0,0,3.59,12.16,2.35,17.71A33.2,33.2,0,0,1,190.11,411.64Z"
    transform="translate(-12 -3.08)" />
  <path class="cls-25" d="M199,446.16l6.32-3.7a5.45,5.45,0,0,0,2.61-4.65v-1.36a5.45,5.45,0,0,0-5.45-5.45H201.1"
    transform="translate(-12 -3.08)" />
  <g class="cls-26">
    <ellipse class="cls-27" cx="175" cy="423.61" rx="12.61" ry="4.59" />
  </g>
  <g class="cls-12">
    <ellipse class="cls-13" cx="175.05" cy="466.72" rx="10.78" ry="2.68" />
  </g>
  <g class="cls-28">
    <circle class="cls-29" cx="175" cy="127.79" r="38.84" />
  </g>
</svg>